<svg width="106" height="96" viewBox="0 0 106 96" fill="none" xmlns="http://www.w3.org/2000/svg">
<path d="M7.41939 29.2C6.01939 29.7 2.81939 28.2 1.41939 30.1C0.0193908 32 -0.580609 36 0.719391 38.4C2.01939 40.8 5.81939 43.6 8.31939 44.3C10.8194 45 13.1194 42.5 15.0194 42.2C17.0194 41.9 17.3194 41.9 17.6194 42.9C17.9194 43.9 16.9194 46.4 19.6194 47.5C22.3194 48.6 28.2194 49.5 28.8194 50.5C29.4194 51.6 28.9194 55.3 29.7194 56C30.5194 56.7 33.7194 55.7 34.0194 57.5C34.3194 59.3 34.4194 63.1 34.7194 65.7C35.0194 68.3 36.1194 68.7 38.3194 69.2C40.5194 69.7 40.5194 73.3 41.6194 73.3C42.7194 73.4 43.0194 73.4 43.1194 74.3C43.3194 75.1 44.6194 79.4 43.9194 80.2C43.2194 81 38.8194 81.5 37.7194 83.7C37.4194 84.3 37.6194 86.2 37.6194 86.5C37.7194 87.3 39.1194 87.3 41.1194 89C43.7194 91.3 44.7194 93.7 45.1194 95.4C45.5194 97.1 47.1194 93.1 48.9194 92.1C50.7194 91.1 52.5194 87.9 53.2194 85.7C53.9194 83.5 56.1194 83.8 56.5194 80.6C56.9194 77.4 58.5194 74.8 61.7194 73.6C65.0194 72.4 69.9194 72 71.8194 69.9C73.7194 67.8 76.5194 60.8 77.0194 59C77.5194 57.2 76.8194 50.6 77.6194 49C78.5194 47.4 80.2194 47.8 81.3194 45.5C82.4194 43.2 87.0194 39.9 86.7194 36.3C86.3194 32.7 86.2194 31.5 85.1194 30.9C84.0194 30.3 81.9194 30.7 79.2194 28.3C76.6194 25.8 75.1194 24.8 71.9194 25C68.7194 25.2 66.4194 23.9 64.2194 22.8C62.0194 21.6 56.6194 20.2 54.7194 18.9C52.7194 17.7 53.9194 17.6 52.0194 15.2C50.1194 12.9 51.1194 10.5 50.0194 10C49.0194 9.40001 44.7194 15.3 42.4194 14.3C40.1194 13.3 38.4194 14.2 35.5194 14.8C32.6194 15.4 29.9194 14.1 30.3194 12.2C30.6194 10.9 31.4194 9.00001 31.2194 8.10001C31.1194 7.60001 31.4194 5.40001 30.7194 5.50001C28.3194 5.70001 21.3194 6.40001 20.4194 7.80001C20.3194 8.00001 20.3194 10.2 20.3194 10.4C20.1194 11.7 22.2194 13 21.0194 14.1C19.7194 15.3 17.3194 17.3 16.1194 16.8C15.0194 16.3 11.4194 14.3 9.41939 15.1C7.41939 15.8 7.61939 18.6 7.81939 19.8C8.01939 21 9.91939 22.2 9.51939 24.5C9.01939 27 8.91939 28.6 7.41939 29.2Z" fill="#F8B338"/>
<path d="M7.41945 26.9C6.01945 27.4 3.31945 26.8 1.91945 28.7C0.519445 30.6 -0.580555 33.7 0.619445 36.2C1.91945 38.6 5.71945 41.4 8.21945 42.1C10.7194 42.8 13.0194 40.3 14.9194 40C16.8194 39.7 17.2194 39.7 17.5194 40.7C17.8194 41.7 16.8194 44.2 19.5194 45.3C22.2194 46.4 28.1194 47.3 28.7194 48.3C29.3194 49.4 28.8194 53.1 29.6194 53.8C30.4194 54.5 33.6194 53.5 33.9194 55.3C34.2194 57.1 34.3194 60.9 34.6194 63.5C34.9194 66.1 36.0194 66.5 38.2194 67C40.4194 67.5 40.4194 71.1 41.5194 71.1C42.6194 71.2 42.9194 71.2 43.0194 72.1C43.1194 73 44.5194 77.2 43.8194 78C43.1194 78.8 39.0194 80.8 37.8194 83.1C36.6194 85.4 38.3194 84.5 40.9194 86.8C43.5194 89.1 44.5194 91.5 44.9194 93.2C45.3194 94.9 46.9194 90.9 48.7194 89.9C50.5194 88.8 52.3194 85.7 53.0194 83.5C53.7194 81.3 55.9194 81.6 56.3194 78.4C56.7194 75.2 58.3194 72.6 61.5194 71.4C64.8194 70.2 69.7194 69.8 71.6194 67.7C73.5194 65.6 76.3195 58.6 76.8195 56.8C77.3195 55 76.6194 48.4 77.4194 46.8C78.3194 45.2 80.0194 45.6 81.1194 43.3C82.2194 41 86.8194 37.7 86.5194 34.1C86.2194 30.5 86.0194 29.3 84.9194 28.7C83.8194 28.1 81.7194 28.5 79.0194 26.1C76.4194 23.6 74.9195 22.6 71.7195 22.8C68.4195 23 66.2194 21.7 64.0194 20.6C61.8194 19.4 56.4194 18 54.5194 16.7C52.5194 15.5 53.7194 15.4 51.8194 13C49.9194 10.7 50.9194 8.30002 49.8194 7.80002C48.8194 7.20002 44.5194 13.1 42.2194 12.1C39.9194 11.1 38.2194 12 35.3194 12.6C32.4194 13.2 29.7194 11.9 30.1194 10C30.5194 8.10002 32.1194 5.00002 29.8194 5.20002C27.5194 5.40002 21.2194 6.20002 20.3194 7.70002C19.4194 9.20002 22.2194 10.7 20.8194 11.9C19.5194 13.1 17.1194 15.1 15.9194 14.6C14.7194 14.1 12.9194 12.4 10.9194 13.1C8.91945 13.8 7.41945 16.3 7.61945 17.5C7.81945 18.7 9.71944 19.9 9.31944 22.2C9.01944 24.8 8.91945 26.4 7.41945 26.9Z" fill="#FA6324"/>
<path d="M67.7194 22.5C66.4194 22.1 65.2194 21.4 64.0194 20.8C61.8194 19.6 56.4194 18.2 54.5194 16.9C54.3194 16.7 54.1194 16.6 53.9194 16.5V82.2C54.8194 81.2 56.1194 80.8 56.4194 78.4C56.8194 75.2 58.4194 72.6 61.6194 71.4C63.6194 70.7 66.1194 70.3 68.2194 69.6L67.7194 22.5Z" fill="#E8522F"/>
<path d="M68.0194 0.0999756H98.0194C102.419 0.0999756 106.019 3.69998 105.919 8.09998V87.1C105.919 91.5 102.319 95.1 97.9194 95H67.9194C63.5194 95 59.9194 91.4 60.0194 87V7.99998C60.1194 3.59998 63.7194 0.0999756 68.0194 0.0999756Z" fill="#321A4C"/>
<path d="M65.0194 0H95.0194C99.4194 0 103.019 3.6 102.919 8V87C102.919 91.4 99.3194 95 94.9194 94.9H64.9194C60.5194 94.9 56.9194 91.3 57.0194 86.9V7.9C57.1194 3.5 60.6194 0 65.0194 0Z" fill="#660099"/>
<path d="M65.6195 3.5H68.5195C69.0195 3.5 69.4195 3.9 69.4195 4.4V5.6C69.4195 6.5 70.2195 7.3 71.1195 7.3H89.0195C89.9195 7.3 90.7195 6.5 90.7195 5.6V4.4C90.7195 3.9 91.1195 3.5 91.6195 3.5H94.5195C97.7195 3.5 100.419 6.1 100.419 9.4V85.5C100.419 88.7 97.8195 91.4 94.5195 91.4H65.6195C62.4195 91.4 59.7195 88.8 59.7195 85.5V9.4C59.7195 6.1 62.4195 3.5 65.6195 3.5Z" fill="#8333AB"/>
<path d="M82.4194 5.4H77.3194C77.2194 5.4 77.1194 5.3 77.1194 5.2C77.1194 5.1 77.2194 5 77.3194 5H82.4194C82.5194 5 82.6194 5.1 82.6194 5.2C82.6194 5.3 82.5194 5.4 82.4194 5.4Z" fill="#321A4C"/>
<path d="M76.2194 5.4H75.6194C75.5194 5.4 75.4194 5.3 75.4194 5.2C75.4194 5.1 75.5194 5 75.6194 5H76.2194C76.3194 5 76.4194 5.1 76.4194 5.2C76.5194 5.3 76.4194 5.4 76.2194 5.4Z" fill="#321A4C"/>
</svg>
