<svg width="93" height="98" viewBox="0 0 93 98" fill="none" xmlns="http://www.w3.org/2000/svg">
<path d="M41.9 0.100098H5.8C2.7 0.100098 0.2 2.6001 0.1 5.7001L0 92.3001C0 95.4001 2.5 97.9001 5.6 98.0001H41.7C44.8 98.0001 47.3 95.5001 47.4 92.4001L47.5 5.8001C47.6 2.6001 45.1 0.100098 41.9 0.100098V0.100098Z" fill="#660098"/>
<path d="M44.9 0H8.8C5.7 0 3.2 2.5 3.1 5.6L3 92.2C3 95.3 5.5 97.8 8.6 97.9H44.7C47.8 97.9 50.3 95.4 50.4 92.3L50.5 5.7C50.6 2.5 48 0 44.9 0V0Z" fill="#8433AC"/>
<path d="M44.4 2.30005H39.1C38.6 2.30005 38.2 2.70005 38.2 3.20005V4.50005C38.2 5.50005 37.4 6.30005 36.4 6.30005H17.4C16.4 6.30005 15.6 5.50005 15.6 4.50005V3.20005C15.6 2.70005 15.2 2.30005 14.7 2.30005H9.39995C7.19995 2.30005 5.39995 4.10005 5.39995 6.30005L5.19995 91.5C5.19995 93.7 6.99995 95.5 9.19995 95.5H44.3C46.5 95.5 48.3 93.7 48.3 91.5L48.4 6.40005C48.4 4.20005 46.6 2.30005 44.4 2.30005V2.30005Z" fill="#FF9800"/>
<path d="M41.6998 54.4001C41.6998 55.0001 41.4998 55.7001 41.1998 56.4001C40.8998 57.1001 40.2998 57.7001 39.2998 58.4001C38.2998 59.1001 37.4998 59.4001 36.6998 59.5001C35.5998 59.7001 34.4998 59.7001 33.4998 59.5001C32.2998 59.3001 30.6998 58.7001 28.6998 57.8001C24.6998 56.1001 20.9998 52.8001 17.5998 48.1001L17.3998 47.9001C15.6998 45.4001 14.7998 43.2001 14.7998 41.1001C14.7998 39.0001 15.4998 37.3001 16.8998 35.8001L16.9998 35.7001C17.5998 35.1001 18.0998 34.9001 18.7998 34.9001H20.3998C20.6998 34.9001 20.9998 35.0001 21.1998 35.1001C21.3998 35.2001 21.5998 35.5001 21.6998 36.0001L23.6998 40.9001C23.8998 41.4001 23.9998 41.8001 23.7998 42.1001C23.3998 42.9001 22.8998 43.6001 22.2998 44.2001C21.9998 44.5001 21.7998 44.8001 21.6998 45.0001C21.5998 45.2001 21.6998 45.4001 21.8998 45.7001C22.9998 47.8001 24.2998 49.4001 25.7998 50.6001C26.8998 51.5001 28.5998 52.5001 30.7998 53.6001C31.3998 53.9001 31.8998 53.9001 32.1998 53.5001C33.1998 52.3001 33.8998 51.4001 34.2998 50.9001C34.4998 50.6001 34.6998 50.4001 34.8998 50.4001C35.0998 50.4001 35.3998 50.4001 35.6998 50.5001C36.2998 50.7001 37.7998 51.5001 40.1998 52.6001L40.5998 52.8001C41.1998 53.0001 41.4998 53.2001 41.5998 53.4001C41.7998 53.4001 41.7998 53.8001 41.6998 54.4001V54.4001Z" fill="#F96324"/>
<path d="M53.4999 64L40.8999 51.5C38.8999 49.5 38.8999 46.3 40.8999 44.3L53.3999 31.8C62.2999 22.9 76.7999 22.9 85.6999 31.8C94.5999 40.7 94.5999 55.2 85.6999 64.1C76.8999 73 62.3999 73 53.4999 64V64Z" fill="#660098"/>
<path d="M78.1 41.2C79.5 41.2 80.8 41.5999 82 42.2999C83.2 42.9999 84.1 44 84.8 45.2C85.5 46.4 85.8 47.8 85.8 49.2C85.8 50.6 85.5 52 84.8 53.2C84.1 54.4 83.2 55.4 82 56.1C80.8 56.8 79.5 57.2 78.1 57.2C76.4 57.2 74.7 56.5 73.1 55.2C72 54.3 70.9 53.0999 69.9 51.5999C68.9 53.0999 67.8 54.3 66.7 55.2C65.1 56.5 63.4 57.2 61.7 57.2C60.3 57.2 59 56.8 57.8 56.1C56.6 55.4 55.7 54.4 55 53.2C54.3 52 54 50.6 54 49.2C54 47.8 54.3 46.4 55 45.2C55.7 44 56.6 42.9999 57.8 42.2999C59 41.5999 60.3 41.2 61.7 41.2C63.4 41.2 65.1 41.9 66.7 43.2C67.8 44.1 68.9 45.2999 69.9 46.7999C70.9 45.2999 72 44.1 73.1 43.2C74.7 41.9 76.4 41.2 78.1 41.2ZM61.7 54.7999C63.2 54.7999 64.6 54.0999 66 52.5999C66.9 51.6999 67.8 50.5999 68.5 49.2999C67.8 47.9999 66.9 46.9 66 46C64.6 44.5 63.1 43.7999 61.7 43.7999C60.7 43.7999 59.8 44 59 44.5C58.2 45 57.5 45.7 57.1 46.5C56.7 47.3 56.4 48.2999 56.4 49.2999C56.4 50.2999 56.6 51.1999 57.1 52.0999C57.6 52.9999 58.2 53.5999 59 54.0999C59.8 54.5999 60.7 54.7999 61.7 54.7999ZM78.1 54.7999C79.1 54.7999 80 54.5999 80.8 54.0999C81.6 53.5999 82.3 52.8999 82.7 52.0999C83.1 51.2999 83.4 50.2999 83.4 49.2999C83.4 48.2999 83.2 47.4 82.7 46.5C82.2 45.6 81.6 45 80.8 44.5C80 44 79.1 43.7999 78.1 43.7999C76.6 43.7999 75.2 44.5 73.8 46C72.9 46.9 72 47.9999 71.3 49.2999C72 50.5999 72.9 51.6999 73.8 52.5999C75.2 54.0999 76.6 54.7999 78.1 54.7999Z" fill="#55057F"/>
<path d="M78.1 39.9001C79.5 39.9001 80.8 40.3001 82 41.0001C83.2 41.7001 84.1 42.7001 84.8 43.9001C85.5 45.1001 85.8 46.5001 85.8 47.9001C85.8 49.3001 85.5 50.7001 84.8 51.9001C84.1 53.1001 83.2 54.1001 82 54.8001C80.8 55.5001 79.5 55.9001 78.1 55.9001C76.4 55.9001 74.7 55.2001 73.1 53.9001C72 53.0001 70.9 51.8001 69.9 50.3001C68.9 51.8001 67.8 53.0001 66.7 53.9001C65.1 55.2001 63.4 55.9001 61.7 55.9001C60.3 55.9001 59 55.5001 57.8 54.8001C56.6 54.1001 55.7 53.1001 55 51.9001C54.3 50.7001 54 49.3001 54 47.9001C54 46.5001 54.3 45.1001 55 43.9001C55.7 42.7001 56.6 41.7001 57.8 41.0001C59 40.3001 60.3 39.9001 61.7 39.9001C63.4 39.9001 65.1 40.6001 66.7 41.9001C67.8 42.8001 68.9 44.0001 69.9 45.5001C70.9 44.0001 72 42.8001 73.1 41.9001C74.7 40.6001 76.4 39.9001 78.1 39.9001V39.9001ZM61.7 53.5001C63.2 53.5001 64.6 52.8001 66 51.3001C66.9 50.4001 67.8 49.3001 68.5 48.0001C67.8 46.7001 66.9 45.6001 66 44.7001C64.6 43.2001 63.1 42.5001 61.7 42.5001C60.7 42.5001 59.8 42.7001 59 43.2001C58.2 43.7001 57.5 44.4001 57.1 45.2001C56.7 46.0001 56.4 47.0001 56.4 48.0001C56.4 49.0001 56.6 49.9001 57.1 50.8001C57.6 51.7001 58.2 52.3001 59 52.8001C59.8 53.2001 60.7 53.5001 61.7 53.5001ZM78.1 53.5001C79.1 53.5001 80 53.3001 80.8 52.8001C81.6 52.3001 82.3 51.6001 82.7 50.8001C83.2 49.9001 83.4 49.0001 83.4 48.0001C83.4 47.0001 83.2 46.1001 82.7 45.2001C82.2 44.3001 81.6 43.7001 80.8 43.2001C80 42.7001 79.1 42.5001 78.1 42.5001C76.6 42.5001 75.2 43.2001 73.8 44.7001C72.9 45.6001 72 46.7001 71.3 48.0001C72 49.3001 72.9 50.4001 73.8 51.3001C75.2 52.7001 76.6 53.5001 78.1 53.5001Z" fill="#00AADA"/>
</svg>
