<svg width="71" height="106" viewBox="0 0 71 106" fill="none" xmlns="http://www.w3.org/2000/svg">
<path d="M34.8871 15.3999L3.98708 21.2999C1.28708 21.7999 -0.412925 24.3999 0.0870755 27.0999L14.1871 101.3C14.6871 104 17.2871 105.7 19.9871 105.2L50.8871 99.2999C53.5871 98.7999 55.2871 96.1999 54.7871 93.4999L40.6871 19.2999C40.0871 16.5999 37.5871 14.8999 34.8871 15.3999V15.3999Z" fill="#660098"/>
<path d="M37.3871 14.8L6.48708 20.7C3.78708 21.2 2.08708 23.8 2.58708 26.5L16.6871 100.7C17.1871 103.4 19.7871 105.1 22.4871 104.6L53.3871 98.7C56.0871 98.2 57.7871 95.6 57.2871 92.9L43.1871 18.7C42.6871 16.1 40.0871 14.3 37.3871 14.8Z" fill="#8433AC"/>
<path d="M37.387 16.9L32.787 17.8C32.387 17.9 32.087 18.3 32.187 18.7L32.387 19.8C32.587 20.7 31.987 21.5 31.087 21.6L14.787 24.7C13.887 24.9 13.087 24.3 12.987 23.4L12.787 22.3C12.687 21.9 12.287 21.6 11.887 21.7L7.28704 22.6C5.38704 23 4.08704 24.8 4.48704 26.7L18.387 99.7C18.787 101.6 20.587 102.9 22.487 102.5L52.587 96.8C54.487 96.4 55.787 94.6 55.387 92.7L41.487 19.7C41.187 17.8 39.287 16.5 37.387 16.9V16.9ZM46.687 19C46.087 19 45.687 18.6 45.687 18C45.687 14.4 42.787 11.5 39.187 11.5C38.587 11.5 38.187 11.1 38.187 10.5C38.187 9.9 38.587 9.5 39.187 9.5C43.887 9.5 47.687 13.3 47.687 18C47.687 18.6 47.187 19 46.687 19Z" fill="#FF9800"/>
<path d="M51.487 19C50.887 19 50.487 18.6 50.487 18C50.487 11.8 45.387 6.69995 39.187 6.69995C38.587 6.69995 38.187 6.29995 38.187 5.69995C38.187 5.09995 38.587 4.69995 39.187 4.69995C46.487 4.69995 52.487 10.7 52.487 18C52.487 18.6 51.987 19 51.487 19Z" fill="#FF9800"/>
<path d="M56.187 19C55.587 19 55.187 18.6 55.187 18C55.187 9.2 47.987 2 39.187 2C38.587 2 38.187 1.6 38.187 1C38.187 0.4 38.587 0 39.187 0C49.187 0 57.187 8.1 57.187 18C57.187 18.6 56.787 19 56.187 19Z" fill="#FF9800"/>
<path d="M56.687 45.8998C55.387 46.5998 54.687 47.8998 54.787 49.1998C53.687 47.7998 51.687 47.2998 50.187 48.2998C49.087 48.9998 48.487 50.1998 48.587 51.3998C47.487 50.0998 45.587 49.6998 44.087 50.6998C42.987 51.3998 42.387 52.5998 42.487 53.7998L38.387 47.2998C37.387 45.6998 35.187 45.0998 33.587 46.0998C31.887 47.0998 31.287 49.2998 32.287 50.9998C32.287 50.9998 36.987 58.3998 42.387 67.0998L37.687 64.4998C36.087 63.5998 33.987 63.9998 32.987 65.5998C31.987 67.1998 32.487 69.3998 34.187 70.2998L46.987 77.4998C52.787 80.7998 60.087 80.4998 64.287 77.8998C68.487 75.1998 71.287 70.2998 70.587 65.8998C70.187 62.9998 69.287 60.4998 66.987 56.7998C63.387 50.9998 61.087 47.3998 61.087 47.3998C60.287 45.6998 58.287 44.9998 56.687 45.8998V45.8998Z" fill="#2E94CD"/>
<path d="M69.8869 65.3999C69.2869 59.5999 67.3869 57.2999 65.3869 53.9999C64.8869 53.1999 64.2869 52.1999 63.6869 51.0999C62.1869 48.5999 61.2869 47.1999 61.2869 47.1999C60.2869 45.6999 58.3869 44.9999 56.7869 45.8999C55.4869 46.5999 54.7869 47.8999 54.8869 49.1999C53.7869 47.7999 51.7869 47.2999 50.2869 48.2999C49.1869 48.9999 48.5869 50.1999 48.6869 51.3999C47.5869 50.0999 45.6869 49.6999 44.1869 50.6999C43.0869 51.3999 42.4869 52.5999 42.5869 53.7999L38.4869 47.2999C37.4869 45.6999 35.2869 45.0999 33.6869 46.0999C33.4869 46.1999 33.2869 46.3999 33.0869 46.4999C35.1869 50.4999 40.5869 58.6999 43.4869 62.7999C47.1869 67.9999 50.8869 74.6999 56.6869 75.9999C62.4869 77.2999 70.4869 71.1999 69.8869 65.3999Z" fill="#00AADA"/>
<path d="M32.3871 43.7C31.9871 43.7 31.5871 43.4 31.4871 43L28.8871 35.5C28.6871 35 28.9871 34.4 29.4871 34.2C29.9871 34 30.5871 34.3 30.7871 34.8L33.3871 42.3C33.5871 42.8 33.2871 43.4 32.7871 43.6C32.6871 43.7 32.4871 43.7 32.3871 43.7ZM28.8871 48.6C28.8871 48.6 28.7871 48.6 28.8871 48.6L22.6871 48C22.1871 47.9 21.7871 47.5 21.7871 46.9C21.8871 46.4 22.2871 46 22.8871 46L28.9871 46.6C29.4871 46.7 29.8871 47.1 29.8871 47.7C29.7871 48.2 29.3871 48.6 28.8871 48.6ZM27.9871 58.8C27.7871 58.8 27.5871 58.7 27.4871 58.6C26.9871 58.3 26.8871 57.7 27.1871 57.2L29.6871 53.3C29.9871 52.8 30.5871 52.7 31.0871 53C31.5871 53.3 31.6871 53.9 31.3871 54.4L28.8871 58.3C28.5871 58.6 28.2871 58.8 27.9871 58.8V58.8ZM37.8871 44.2C37.6871 44.2 37.4871 44.1 37.2871 44C36.8871 43.7 36.7871 43 37.1871 42.6L40.1871 38.9C40.4871 38.5 41.1871 38.4 41.5871 38.8C41.9871 39.2 42.0871 39.8 41.6871 40.2L38.6871 43.9C38.4871 44 38.1871 44.2 37.8871 44.2V44.2Z" fill="#F08A0E"/>
</svg>
