<svg width="28" height="38" viewBox="0 0 28 38" fill="none" xmlns="http://www.w3.org/2000/svg">
<path fill-rule="evenodd" clip-rule="evenodd" d="M21.1747 7.01625C21.1779 8.37051 20.6976 10.4848 19.1922 11.9794C18.7831 12.388 18.3288 12.7499 17.8377 13.0582C17.1315 13.5131 16.618 13.8298 16.9068 14.5877C17.1893 15.3297 18.0624 15.0975 18.8915 14.9107C19.1579 14.8463 24.3545 13.6039 24.4209 13.6007C25.0908 13.4746 25.7843 13.6075 26.3575 13.972C26.9308 14.3366 27.3399 14.9047 27.5001 15.5588L27.9249 17.2952C28.0858 17.9495 27.9861 18.6398 27.6462 19.2237C27.3064 19.8076 26.7524 20.2406 26.0985 20.4333C26.0397 20.4586 20.3605 21.8245 20.3509 21.8266C19.2724 22.1011 18.6412 22.6331 18.6455 23.6633C18.6455 24.1224 18.9161 24.6217 19.2489 25.0355C19.2489 25.0355 25.4416 32.59 25.4726 32.6491C25.8772 33.1913 26.0557 33.866 25.9711 34.5341C25.8865 35.2022 25.5453 35.8128 25.0179 36.2401L23.6163 37.3695C23.089 37.7954 22.4156 38.0044 21.7361 37.9531C21.0567 37.9018 20.4234 37.5941 19.9679 37.094C19.9176 37.0518 16.0712 32.4 15.6636 31.905C15.256 31.4131 14.7435 30.6615 14.0309 30.6647C13.3226 30.6647 12.8133 31.4205 12.4068 31.9145C12.0013 32.4106 8.17631 37.0814 8.12923 37.1225C7.67623 37.6251 7.04442 37.9362 6.36502 37.9912C5.68562 38.0463 5.01084 37.841 4.48081 37.4181C4.46905 37.4075 3.07922 36.296 3.07495 36.295C2.54589 35.87 2.20187 35.2613 2.11352 34.5938C2.02518 33.9264 2.19921 33.2509 2.59989 32.7061C2.62985 32.647 8.78723 25.0619 8.78723 25.0619C9.11677 24.647 9.38532 24.1456 9.38425 23.6865C9.37997 22.6563 8.74979 22.1274 7.6681 21.8583C7.65847 21.8583 1.97293 20.5177 1.91515 20.4935C1.2602 20.3037 0.70394 19.8734 0.360978 19.2912C0.0180163 18.7089 -0.0855255 18.0191 0.0716804 17.3638C0.0738251 17.3479 0.485737 15.6295 0.487878 15.6242C0.645082 14.9697 1.05126 14.3998 1.62239 14.0324C2.19352 13.665 2.88592 13.5282 3.5564 13.6504C3.6206 13.6504 8.82468 14.8727 9.09217 14.935C9.92135 15.1165 10.7987 15.3466 11.0758 14.6025C11.3593 13.8425 10.8458 13.5279 10.1375 13.0772C9.64425 12.7715 9.18769 12.4118 8.77654 12.0048C7.26367 10.5196 6.77257 8.40534 6.76937 7.05108C6.7608 3.16667 10.0283 0.0105822 13.9549 2.65159e-05C17.8815 -0.0105292 21.1651 3.13184 21.1737 7.01625H21.1747Z" fill="#660099"/>
</svg>
