<svg version="1.1" id="Layer_1" xmlns="http://www.w3.org/2000/svg" x="0" y="0" viewBox="0 0 108 108" xml:space="preserve"><style>.st1{fill:#2e94cd}.st2{fill:#660098}.st4{fill:#ea3d7d}</style><circle cx="48.4" cy="60.6" r="44.8" fill="#00aada"/><path class="st1" d="M48.4 15.9c-4.3 0-8.5.7-12.4 1.8l1.4 3c.7 1.3 2 2.1 3.4 2.1H42l.7.9c.7.9 1.9 1.5 3 1.5h2.1c.7 0 1.5-.2 2-.7l2.4-1.6c1-.7 1.7-1.9 1.7-3.2v-.4l1.6-.7c.8-.4 1.4-1 1.8-1.9-2.9-.6-5.8-.8-8.9-.8zM3.8 56.9l3.6 3.7v2c0 1.5.7 2.8 2 3.6l5 3.4-.9 2.5c-.3.7-.4 1.6-.2 2.4l1.5 7c.3 1.4 1.2 2.5 2.5 3.1l3 1.3-2 7.9c3.2 2.9 6.8 5.3 10.7 7.3l2.8-4.7 3.6-.9c1.6-.4 2.8-1.7 3.2-3.3l.7-2.9 6.6-8.2c.7-.7.9-1.8.9-2.7v-4.7c0-1.7-1-3.3-2.6-3.9L38 66.9 35.7 64c-.8-1-2-1.6-3.4-1.6h-6.8l-6.3-2.8v-.5c0-1.1-.5-2.2-1.3-3.1l-2.6-2.6v-.1l3.6 1.9c.6.3 1.3.5 2 .5h1.3c2.4 0 4.3-2 4.3-4.3v-3.8l6.5-5.5 6.8-4.8c1.4-1 2-2.8 1.7-4.5l-.6-2.4c-.4-1.7-1.8-3.1-3.4-3.4l-3.9-.7-3.2-6.2c-.1-.2-.2-.3-.3-.5C15.6 26.2 5.2 40.3 3.8 56.9zM93.1 63.8l-.8-1.2c.3 0 .7-.1.9-.3v-1.7c0-14.7-7.1-27.8-18.1-35.9-1.1.6-2 1.6-2.2 2.8l-4.7.7c-1 .1-2 .6-2.8 1.3l-.7.8V24.4c0-1.8-1.5-3.3-3.3-3.3h-.8c-1.6 0-2.9 1.1-3.3 2.6l-.6 2.2c-.3.3-.7.7-1.2 1.1-1.2.5-2 1.7-2 3.1v4.3c0 .7.2 1.2.6 1.8-.9.7-1.5 1.9-1.5 3.2v2.2c0 2.3 1.9 4.2 4.2 4.2h2.5c1 0 2-.4 2.7-1l2.2-1.9 2.6.1c-.2 1.1.1 2.2.8 3.2.8 1 2 1.7 3.4 1.7h.7c1.3 0 2.6-.7 3.4-1.7l2.1-2.8c0 1.1-.2 2.9-.4 3.8L73 48.3c-1 .3-2 .4-3.1.4-2.3 0-6.5-.1-9.2 0-1.9 0-3.6.9-4.7 2.4l-2.2 3.1c-.7 1-1.2 2.3-1.2 3.6V65c0 .8.3 1.7.8 2.2l4.1 4.7c.9 1.1 2.1 1.8 3.5 2l8.5 1.4.6 5.7c.1.8.5 1.7 1.2 2.2l.9.8-.5 4.6c-.1.9.2 1.9.8 2.6l.5.6V98c11.2-7.3 19-19.8 20.1-34.2z"/><path class="st2" d="M60.1 24.9l-.5 2c-.1.3-2.3 2.2-2.3 2.2-.4 0-.7.3-.7.7v4.4c0 .4.3.7.7.7h2.6c.4 0 .7-.3.7-.7v-2c0-.2.1-.4.2-.5l1.6-1.5c.1-.1.2-.3.2-.5v-5.6c0-.4-.3-.7-.7-.7H61c-.4 0-.7.3-.7.6l-.2.9zM48.4 15.9c-3.2 0-6.3.4-9.3.9l1 2.2c.2.4.7.7 1 .7h1.8c.4 0 .7.2.9.5l1.1 1.5c.2.3.6.5.9.5H48c.2 0 .5-.1.7-.2l2.4-1.6c.4-.2.6-.6.6-1v-1.2c0-.5.3-.8.7-1l1.7-.7c-1.9-.5-3.8-.6-5.7-.6zM4.3 53.3c.5 0 .8.2 1.2.6l4.7 4.8c.3.4.5.7.5 1.2v2.3c0 .6.3 1.1.7 1.5l5.6 3.7c.7.5.9 1.3.7 2l-1.2 3.1c-.1.3-.2.7-.1 1l1.5 7c.1.6.5 1 1 1.2l3.6 1.6c.7.3 1.2 1.1 1 1.9L20.9 96c2 1.5 4 2.9 6.1 4l3.4-5.7c.3-.4.7-.7 1.1-.8l3.9-1c.7-.2 1.1-.7 1.3-1.3l.7-3.1c.1-.3.2-.5.4-.7l6.7-8.4c.3-.3.4-.7.4-1.1v-4.7c0-.7-.4-1.3-1-1.6l-6.3-2.8c-.3-.1-.5-.3-.7-.5l-2.5-3.1c-.4-.4-.8-.7-1.4-.7h-7c-.3 0-.5-.1-.7-.2l-7-3.1c-.7-.3-1-.9-1-1.6v-1c0-.5-.2-.9-.6-1.2l-2.9-2.9c-.4-.4-.6-.7-.6-1.2v-1.8c0-1.3 1.4-2.1 2.5-1.6l4.8 2.4c.3.1.5.2.7.2h1.3c.9 0 1.8-.7 1.8-1.8v-4.2c0-.6.2-1 .7-1.3l13.8-10.6c.6-.4.8-1.1.7-1.8l-.5-2.2c-.2-.7-.7-1.2-1.4-1.3l-4.3-.7c-.6-.1-1-.5-1.2-.9L28.8 21c-.1-.2-.2-.3-.3-.4C15.9 26.8 6.6 38.9 4.3 53.3zM87.8 57.6c1-.9 2.6-.9 3.6 0l1.7 1.6c-.4-13.2-6.5-24.9-15.9-32.8-.7.1-1.3.6-1.5 1.3l-.1.6c-.2.7-.8 1.3-1.6 1.3l-5.2.8c-.5 0-.8.2-1.2.5L61.8 37c-.3.3-.7.5-1.2.5h-3.4c-.9 0-1.7.7-1.7 1.7v2.2c0 .9.7 1.7 1.7 1.7h2.5c.4 0 .7-.1 1-.4l2.5-2c.3-.3.7-.4 1.1-.4l4.1.1c1 0 1.9 1 1.6 2l-.1.6c-.3 1 .5 2 1.6 2h.7c.6 0 1-.3 1.3-.7l3-4c.4-.5.8-.7 1.4-.7l.8.1c.8.1 1.6.7 1.6 1.7v2.1c0 3-2.3 6-5.2 6.7-1.2.3-2.4.5-3.7.5H61.3c-1 0-2 .5-2.7 1.4l-2.3 3c-.5.6-.7 1.3-.7 2v7.3c0 .2.1.5.2.6l4.1 4.7c.6.7 1.2 1 2 1.1l9.7 1.7c.4.1.7.4.7.8l.7 6.9c0 .3.1.5.3.7l1.6 1.4c.2.2.4.5.3.8l.5 12.8c5.5-4.2 10-9.6 13-15.8v-2.4c0-.2.1-.4.2-.6l2.2-3c.7-1.9 1.1-3.8 1.4-5.8l-6-8.7c-.2-.3-.3-.7 0-1 .1.1.7-.5 1.3-1z"/><g><path d="M100.3 47.9H52.9c-1.4 0-2.5-1.1-2.5-2.5V14.6c0-1.4 1.1-2.5 2.5-2.5h47.4c1.4 0 2.5 1.1 2.5 2.5v30.7c.1 1.4-1.1 2.6-2.5 2.6z" fill="#ff9800"/></g><g><path class="st4" d="M76.7 33.4c-.2 0-.4-.1-.6-.2L54.5 17.5c-.4-.3-.5-.9-.2-1.4.3-.4.9-.5 1.4-.2l21.1 15.3 21.1-15.3c.4-.3 1.1-.2 1.4.2.3.4.2 1.1-.2 1.4L77.3 33.2c-.1.2-.3.2-.6.2z"/></g><g><path class="st4" d="M55.1 43.4c-.3 0-.6-.1-.8-.4-.3-.4-.2-1.1.2-1.4L72 28.9c.4-.3 1.1-.2 1.4.2.3.4.2 1.1-.2 1.4L55.7 43.2c-.2.1-.4.2-.6.2z"/></g><g><path class="st4" d="M98.4 43.4c-.2 0-.4-.1-.6-.2L80.2 30.5c-.4-.3-.5-.9-.2-1.4.3-.4.9-.5 1.4-.2L99 41.6c.4.3.5.9.2 1.4-.2.3-.5.4-.8.4z"/></g></svg>