<svg width="34" height="127" viewBox="0 0 34 127" fill="none" xmlns="http://www.w3.org/2000/svg">
<path fill-rule="evenodd" clip-rule="evenodd" d="M30.3539 115.622C30.3541 115.957 30.1798 117.239 28.8896 117.946L14.2649 126.191C12.7153 127.036 11.3997 126.043 11.0727 125.162L10.0873 122.972C9.55818 121.795 10.1154 120.377 11.3503 119.846L21.7605 114.673L21.7604 114.596L11.3428 109.432C10.1082 108.902 9.54783 107.487 10.0752 106.307L11.0575 104.116C11.3833 103.236 12.6974 102.241 14.2482 103.084L28.8848 111.307C29.3084 111.536 29.6659 111.87 29.9228 112.277C30.1796 112.684 30.3272 113.151 30.3513 113.631L30.3527 115.621L30.3539 115.622ZM30.3277 79.4426C30.3042 79.9233 30.157 80.3899 29.9005 80.7972C29.644 81.2045 29.2868 81.5388 28.8635 81.7677L14.2387 90.0135C12.6892 90.86 11.3736 89.8645 11.0465 88.9835L10.0611 86.7951C9.53202 85.6167 10.0892 84.2023 11.3241 83.6685L21.7343 78.4938L21.7343 78.4177L11.3166 73.2546C10.0821 72.7238 9.52167 71.309 10.0491 70.1298L11.0313 67.9388C11.3571 67.0585 12.6712 66.0622 14.222 66.9042L28.8587 75.1288C29.2825 75.3573 29.6401 75.6912 29.897 76.0984C30.1539 76.5056 30.3014 76.9721 30.3251 77.453L30.3266 79.4414L30.3277 79.4426ZM9.90916 55.2927C9.90506 49.6135 14.5153 45.0116 20.2038 45.0075C25.8957 45.0033 30.5138 49.5986 30.5179 55.2767C30.522 60.9513 25.9106 65.5567 20.2186 65.5608C14.5313 65.5649 9.91326 60.9662 9.90916 55.2916L9.90916 55.2927ZM4.07112 92.5329C6.30176 92.5313 8.10928 94.3339 8.11089 96.5576C8.11097 97.0873 8.00666 97.6118 7.80394 98.1011C7.60121 98.5904 7.30405 99.035 6.92941 99.4094C6.55478 99.7839 6.11003 100.081 5.62059 100.283C5.13115 100.486 4.6066 100.59 4.07694 100.589C1.84629 100.591 0.0387852 98.7884 0.0371765 96.5635C0.037399 96.0339 0.141917 95.5096 0.344762 95.0205C0.547607 94.5314 0.844808 94.087 1.21939 93.7127C1.59398 93.3385 2.03861 93.0416 2.52791 92.8392C3.01721 92.6368 3.54159 92.5327 4.07112 92.5329ZM24.2804 55.2812C24.2777 54.2037 23.8473 53.1714 23.0837 52.4112C22.32 51.6511 21.2858 51.2254 20.2083 51.2277C19.1313 51.2275 18.0984 51.6551 17.3365 52.4163C16.5747 53.1775 16.1463 54.2101 16.1455 55.2871C16.1465 55.8204 16.2525 56.3483 16.4575 56.8406C16.6625 57.3329 16.9625 57.7801 17.3403 58.1565C17.7181 58.5329 18.1664 58.8312 18.6595 59.0344C19.1526 59.2375 19.6808 59.3416 20.2141 59.3406C20.7477 59.3411 21.2761 59.2365 21.7693 59.0328C22.2624 58.8291 22.7106 58.5302 23.0882 58.1532C23.4657 57.7762 23.7654 57.3286 23.9699 56.8358C24.1745 56.343 24.28 55.8147 24.2804 55.2812ZM12.6451 100.059C11.2691 100.06 10.153 98.9506 10.152 97.5781L10.1505 95.4996C10.1495 94.1271 11.264 93.0144 12.64 93.0135L27.8474 93.0025C29.2234 93.0015 30.3383 94.1125 30.3393 95.485L30.3408 97.5635C30.3408 97.8902 30.2763 98.2136 30.1511 98.5154C30.0259 98.8172 29.8425 99.0913 29.6113 99.3221C29.38 99.5529 29.1056 99.7358 28.8036 99.8605C28.5016 99.9851 28.178 100.049 27.8513 100.048L12.6462 100.059L12.6451 100.059Z" fill="#660099"/>
<path fill-rule="evenodd" clip-rule="evenodd" d="M27.1747 7.01625C27.1779 8.37051 26.6976 10.4848 25.1922 11.9794C24.7831 12.388 24.3288 12.7499 23.8377 13.0582C23.1315 13.5131 22.618 13.8298 22.9068 14.5877C23.1893 15.3297 24.0624 15.0975 24.8915 14.9107C25.1579 14.8463 30.3545 13.6039 30.4209 13.6007C31.0908 13.4746 31.7843 13.6075 32.3575 13.972C32.9308 14.3366 33.3399 14.9047 33.5001 15.5588L33.9249 17.2952C34.0858 17.9495 33.9861 18.6398 33.6462 19.2237C33.3064 19.8076 32.7524 20.2406 32.0985 20.4333C32.0397 20.4586 26.3605 21.8245 26.3509 21.8266C25.2724 22.1011 24.6412 22.6331 24.6455 23.6633C24.6455 24.1224 24.9161 24.6217 25.2489 25.0355C25.2489 25.0355 31.4416 32.59 31.4726 32.6491C31.8772 33.1913 32.0557 33.866 31.9711 34.5341C31.8865 35.2022 31.5453 35.8128 31.0179 36.2401L29.6163 37.3695C29.089 37.7954 28.4156 38.0044 27.7361 37.9531C27.0567 37.9018 26.4234 37.5941 25.9679 37.094C25.9176 37.0518 22.0712 32.4 21.6636 31.905C21.256 31.4131 20.7435 30.6615 20.0309 30.6647C19.3226 30.6647 18.8133 31.4205 18.4068 31.9145C18.0013 32.4106 14.1763 37.0814 14.1292 37.1225C13.6762 37.6251 13.0444 37.9362 12.365 37.9912C11.6856 38.0463 11.0108 37.841 10.4808 37.4181C10.469 37.4075 9.07922 36.296 9.07495 36.295C8.54589 35.87 8.20187 35.2613 8.11352 34.5938C8.02518 33.9264 8.19921 33.2509 8.59989 32.7061C8.62985 32.647 14.7872 25.0619 14.7872 25.0619C15.1168 24.647 15.3853 24.1456 15.3842 23.6865C15.38 22.6563 14.7498 22.1274 13.6681 21.8583C13.6585 21.8583 7.97293 20.5177 7.91515 20.4935C7.2602 20.3037 6.70394 19.8734 6.36098 19.2912C6.01802 18.7089 5.91447 18.0191 6.07168 17.3638C6.07383 17.3479 6.48574 15.6295 6.48788 15.6242C6.64508 14.9697 7.05126 14.3998 7.62239 14.0324C8.19352 13.665 8.88592 13.5282 9.5564 13.6504C9.6206 13.6504 14.8247 14.8727 15.0922 14.935C15.9214 15.1165 16.7987 15.3466 17.0758 14.6025C17.3593 13.8425 16.8458 13.5279 16.1375 13.0772C15.6442 12.7715 15.1877 12.4118 14.7765 12.0048C13.2637 10.5196 12.7726 8.40534 12.7694 7.05108C12.7608 3.16667 16.0283 0.0105822 19.9549 2.65159e-05C23.8815 -0.0105292 27.1651 3.13184 27.1737 7.01625H27.1747Z" fill="#660099"/>
</svg>
