<svg version="1.1" id="Layer_1" xmlns="http://www.w3.org/2000/svg" x="0" y="0" viewBox="0 0 108 108" xml:space="preserve"><style>.st2{fill:#ff9800}.st5{fill:#f08a0e}</style><path d="M38.2 16.7L7.3 22.6c-2.7.5-4.4 3.1-3.9 5.8l14.1 74.2c.5 2.7 3.1 4.4 5.8 3.9l30.9-5.9c2.7-.5 4.4-3.1 3.9-5.8L44 20.6c-.6-2.7-3.1-4.4-5.8-3.9z" fill="#660098"/><path d="M40.7 16.1L9.8 22c-2.7.5-4.4 3.1-3.9 5.8L20 102c.5 2.7 3.1 4.4 5.8 3.9l30.9-5.9c2.7-.5 4.4-3.1 3.9-5.8L46.5 20c-.5-2.6-3.1-4.4-5.8-3.9z" fill="#8433ac"/><path class="st2" d="M40.7 18.2l-4.6.9c-.4.1-.7.5-.6.9l.2 1.1c.2.9-.4 1.7-1.3 1.8L18.1 26c-.9.2-1.7-.4-1.8-1.3l-.2-1.1c-.1-.4-.5-.7-.9-.6l-4.6.9c-1.9.4-3.2 2.2-2.8 4.1l13.9 73c.4 1.9 2.2 3.2 4.1 2.8l30.1-5.7c1.9-.4 3.2-2.2 2.8-4.1L44.8 21c-.3-1.9-2.2-3.2-4.1-2.8zM50 20.3c-.6 0-1-.4-1-1 0-3.6-2.9-6.5-6.5-6.5-.6 0-1-.4-1-1s.4-1 1-1c4.7 0 8.5 3.8 8.5 8.5 0 .6-.5 1-1 1z"/><path class="st2" d="M54.8 20.3c-.6 0-1-.4-1-1C53.8 13.1 48.7 8 42.5 8c-.6 0-1-.4-1-1s.4-1 1-1c7.3 0 13.3 6 13.3 13.3 0 .6-.5 1-1 1z"/><path class="st2" d="M59.5 20.3c-.6 0-1-.4-1-1 0-8.8-7.2-16-16-16-.6 0-1-.4-1-1s.4-1 1-1c10 0 18 8.1 18 18 0 .6-.4 1-1 1z"/><g><path d="M60 47.2c-1.3.7-2 2-1.9 3.3-1.1-1.4-3.1-1.9-4.6-.9-1.1.7-1.7 1.9-1.6 3.1-1.1-1.3-3-1.7-4.5-.7-1.1.7-1.7 1.9-1.6 3.1l-4.1-6.5c-1-1.6-3.2-2.2-4.8-1.2-1.7 1-2.3 3.2-1.3 4.9 0 0 4.7 7.4 10.1 16.1L41 65.8c-1.6-.9-3.7-.5-4.7 1.1s-.5 3.8 1.2 4.7l12.8 7.2c5.8 3.3 13.1 3 17.3.4 4.2-2.7 7-7.6 6.3-12-.4-2.9-1.3-5.4-3.6-9.1-3.6-5.8-5.9-9.4-5.9-9.4-.8-1.7-2.8-2.4-4.4-1.5z" fill="#2e94cd"/></g><g><path d="M73.2 66.7c-.6-5.8-2.5-8.1-4.5-11.4-.5-.8-1.1-1.8-1.7-2.9-1.5-2.5-2.4-3.9-2.4-3.9-1-1.5-2.9-2.2-4.5-1.3-1.3.7-2 2-1.9 3.3-1.1-1.4-3.1-1.9-4.6-.9-1.1.7-1.7 1.9-1.6 3.1-1.1-1.3-3-1.7-4.5-.7-1.1.7-1.7 1.9-1.6 3.1l-4.1-6.5c-1-1.6-3.2-2.2-4.8-1.2-.2.1-.4.3-.6.4 2.1 4 7.5 12.2 10.4 16.3C50.5 69.3 54.2 76 60 77.3c5.8 1.3 13.8-4.8 13.2-10.6z" fill="#00aada"/></g><g><path class="st5" d="M35.7 45c-.4 0-.8-.3-.9-.7l-2.6-7.5c-.2-.5.1-1.1.6-1.3.5-.2 1.1.1 1.3.6l2.6 7.5c.2.5-.1 1.1-.6 1.3-.1.1-.3.1-.4.1zM32.2 49.9s-.1 0 0 0l-6.2-.6c-.5-.1-.9-.5-.9-1.1.1-.5.5-.9 1.1-.9l6.1.6c.5.1.9.5.9 1.1-.1.5-.5.9-1 .9zM31.3 60.1c-.2 0-.4-.1-.5-.2-.5-.3-.6-.9-.3-1.4l2.5-3.9c.3-.5.9-.6 1.4-.3.5.3.6.9.3 1.4l-2.5 3.9c-.3.3-.6.5-.9.5zM41.2 45.5c-.2 0-.4-.1-.6-.2-.4-.3-.5-1-.1-1.4l3-3.7c.3-.4 1-.5 1.4-.1s.5 1 .1 1.4l-3 3.7c-.2.1-.5.3-.8.3z"/></g></svg>