<svg version="1.1" id="Layer_1" xmlns="http://www.w3.org/2000/svg" x="0" y="0" viewBox="0 0 108 108" xml:space="preserve"><style>.st0{fill:#660098}</style><path class="st0" d="M44.5 8.3H8.4c-3.1 0-5.6 2.5-5.7 5.6l-.1 86.6c0 3.1 2.5 5.6 5.6 5.7h36.1c3.1 0 5.6-2.5 5.7-5.6l.1-86.6c.1-3.2-2.4-5.7-5.6-5.7z"/><path d="M47.5 8.2H11.4c-3.1 0-5.6 2.5-5.7 5.6l-.1 86.6c0 3.1 2.5 5.6 5.6 5.7h36.1c3.1 0 5.6-2.5 5.7-5.6l.1-86.6c.1-3.2-2.5-5.7-5.6-5.7z" fill="#8433ac"/><path d="M47 10.5h-5.3c-.5 0-.9.4-.9.9v1.3c0 1-.8 1.8-1.8 1.8H20c-1 0-1.8-.8-1.8-1.8v-1.3c0-.5-.4-.9-.9-.9H12c-2.2 0-4 1.8-4 4l-.2 85.2c0 2.2 1.8 4 4 4h35.1c2.2 0 4-1.8 4-4l.1-85.1c0-2.2-1.8-4.1-4-4.1z" fill="#ff9800"/><path d="M44.3 62.6c0 .6-.2 1.3-.5 2s-.9 1.3-1.9 2c-1 .7-1.8 1-2.6 1.1-1.1.2-2.2.2-3.2 0-1.2-.2-2.8-.8-4.8-1.7-4-1.7-7.7-5-11.1-9.7l-.2-.2c-1.7-2.5-2.6-4.7-2.6-6.8 0-2.1.7-3.8 2.1-5.3l.1-.1c.6-.6 1.1-.8 1.8-.8H23c.3 0 .6.1.8.2.2.1.4.4.5.9l2 4.9c.2.5.3.9.1 1.2-.4.8-.9 1.5-1.5 2.1-.3.3-.5.6-.6.8-.1.2 0 .4.2.7 1.1 2.1 2.4 3.7 3.9 4.9 1.1.9 2.8 1.9 5 3 .6.3 1.1.3 1.4-.1 1-1.2 1.7-2.1 2.1-2.6.2-.3.4-.5.6-.5.2 0 .5 0 .8.1.6.2 2.1 1 4.5 2.1l.4.2c.6.2.9.4 1 .6.2 0 .2.4.1 1z" fill="#f96324"/><path class="st0" d="M56.1 72.2L43.5 59.7c-2-2-2-5.2 0-7.2L56 40c8.9-8.9 23.4-8.9 32.3 0 8.9 8.9 8.9 23.4 0 32.3-8.8 8.9-23.3 8.9-32.2-.1z"/><g><path d="M80.7 49.4c1.4 0 2.7.4 3.9 1.1s2.1 1.7 2.8 2.9c.7 1.2 1 2.6 1 4s-.3 2.8-1 4c-.7 1.2-1.6 2.2-2.8 2.9-1.2.7-2.5 1.1-3.9 1.1-1.7 0-3.4-.7-5-2-1.1-.9-2.2-2.1-3.2-3.6-1 1.5-2.1 2.7-3.2 3.6-1.6 1.3-3.3 2-5 2-1.4 0-2.7-.4-3.9-1.1-1.2-.7-2.1-1.7-2.8-2.9-.7-1.2-1-2.6-1-4s.3-2.8 1-4c.7-1.2 1.6-2.2 2.8-2.9s2.5-1.1 3.9-1.1c1.7 0 3.4.7 5 2 1.1.9 2.2 2.1 3.2 3.6 1-1.5 2.1-2.7 3.2-3.6 1.6-1.3 3.3-2 5-2zM64.3 63c1.5 0 2.9-.7 4.3-2.2.9-.9 1.8-2 2.5-3.3-.7-1.3-1.6-2.4-2.5-3.3-1.4-1.5-2.9-2.2-4.3-2.2-1 0-1.9.2-2.7.7-.8.5-1.5 1.2-1.9 2s-.7 1.8-.7 2.8.2 1.9.7 2.8 1.1 1.5 1.9 2c.8.5 1.7.7 2.7.7zm16.4 0c1 0 1.9-.2 2.7-.7.8-.5 1.5-1.2 1.9-2s.7-1.8.7-2.8-.2-1.9-.7-2.8-1.1-1.5-1.9-2c-.8-.5-1.7-.7-2.7-.7-1.5 0-2.9.7-4.3 2.2-.9.9-1.8 2-2.5 3.3.7 1.3 1.6 2.4 2.5 3.3 1.4 1.5 2.8 2.2 4.3 2.2z" fill="#55057f"/></g><g><path d="M80.7 48.1c1.4 0 2.7.4 3.9 1.1 1.2.7 2.1 1.7 2.8 2.9.7 1.2 1 2.6 1 4s-.3 2.8-1 4c-.7 1.2-1.6 2.2-2.8 2.9-1.2.7-2.5 1.1-3.9 1.1-1.7 0-3.4-.7-5-2-1.1-.9-2.2-2.1-3.2-3.6-1 1.5-2.1 2.7-3.2 3.6-1.6 1.3-3.3 2-5 2-1.4 0-2.7-.4-3.9-1.1-1.2-.7-2.1-1.7-2.8-2.9-.7-1.2-1-2.6-1-4s.3-2.8 1-4 1.6-2.2 2.8-2.9c1.2-.7 2.5-1.1 3.9-1.1 1.7 0 3.4.7 5 2 1.1.9 2.2 2.1 3.2 3.6 1-1.5 2.1-2.7 3.2-3.6 1.6-1.3 3.3-2 5-2zM64.3 61.7c1.5 0 2.9-.7 4.3-2.2.9-.9 1.8-2 2.5-3.3-.7-1.3-1.6-2.4-2.5-3.3-1.4-1.5-2.9-2.2-4.3-2.2-1 0-1.9.2-2.7.7-.8.5-1.5 1.2-1.9 2s-.7 1.8-.7 2.8.2 1.9.7 2.8c.5.9 1.1 1.5 1.9 2 .8.4 1.7.7 2.7.7zm16.4 0c1 0 1.9-.2 2.7-.7.8-.5 1.5-1.2 1.9-2 .5-.9.7-1.8.7-2.8s-.2-1.9-.7-2.8-1.1-1.5-1.9-2c-.8-.5-1.7-.7-2.7-.7-1.5 0-2.9.7-4.3 2.2-.9.9-1.8 2-2.5 3.3.7 1.3 1.6 2.4 2.5 3.3 1.4 1.4 2.8 2.2 4.3 2.2z" fill="#00aada"/></g></svg>