<svg width="100" height="94" viewBox="0 0 100 94" fill="none" xmlns="http://www.w3.org/2000/svg">
<path d="M45.4001 93.4C70.1425 93.4 90.2001 73.3424 90.2001 48.6C90.2001 23.8577 70.1425 3.80005 45.4001 3.80005C20.6577 3.80005 0.600098 23.8577 0.600098 48.6C0.600098 73.3424 20.6577 93.4 45.4001 93.4Z" fill="#00AADA"/>
<path d="M45.4001 3.90002C41.1001 3.90002 36.9 4.60003 33 5.70003L34.4001 8.70003C35.1001 10 36.4 10.8 37.8 10.8H39L39.7001 11.7C40.4001 12.6 41.6001 13.2 42.7001 13.2H44.8C45.5 13.2 46.3 13 46.8 12.5L49.2001 10.9C50.2001 10.2 50.9001 9.00003 50.9001 7.70003V7.30002L52.5 6.60003C53.3 6.20003 53.9 5.60003 54.3 4.70003C51.4 4.10003 48.5001 3.90002 45.4001 3.90002V3.90002ZM0.800049 44.9L4.40005 48.6V50.6C4.40005 52.1 5.10005 53.4 6.40005 54.2L11.4 57.6L10.5 60.1C10.2 60.8 10.1 61.7 10.3 62.5L11.8 69.5C12.1 70.9 13 72 14.3 72.6L17.3 73.9L15.3 81.8C18.5 84.7 22.1 87.1 26 89.1L28.8 84.4L32.4001 83.5C34.0001 83.1 35.2 81.8 35.6 80.2L36.3 77.3L42.9001 69.1C43.6001 68.4 43.8 67.3 43.8 66.4V61.7C43.8 60 42.8001 58.4 41.2001 57.8L35 54.9L32.7001 52C31.9001 51 30.7 50.4 29.3 50.4H22.5L16.2 47.6V47.1C16.2 46 15.7 44.9 14.9 44L12.3 41.4V41.3L15.9 43.2C16.5 43.5 17.2 43.7 17.9 43.7H19.2001C21.6001 43.7 23.5 41.7 23.5 39.4V35.6L30 30.1L36.8 25.3C38.2 24.3 38.8 22.5 38.5 20.8L37.9001 18.4C37.5001 16.7 36.1 15.3 34.5 15L30.6 14.3L27.4 8.10003C27.3 7.90003 27.2 7.80003 27.1 7.60003C12.6 14.2 2.20005 28.3 0.800049 44.9ZM90.1 51.8L89.3 50.6C89.6 50.6 90 50.5 90.2 50.3V48.6C90.2 33.9 83.1 20.8 72.1 12.7C71 13.3 70.1 14.3 69.9 15.5L65.2 16.2C64.2 16.3 63.2001 16.8 62.4001 17.5L61.7 18.3V12.4C61.7 10.6 60.2001 9.10003 58.4001 9.10003H57.6C56 9.10003 54.7 10.2 54.3 11.7L53.7001 13.9C53.4001 14.2 53 14.6 52.5 15C51.3 15.5 50.5 16.7 50.5 18.1V22.4C50.5 23.1 50.7 23.6 51.1 24.2C50.2 24.9 49.6 26.1 49.6 27.4V29.6C49.6 31.9 51.5 33.8 53.8 33.8H56.3C57.3 33.8 58.3 33.4 59 32.8L61.2 30.9L63.8001 31C63.6001 32.1 63.9 33.2 64.6 34.2C65.4 35.2 66.6 35.9 68 35.9H68.7C70 35.9 71.3 35.2 72.1 34.2L74.2 31.4C74.2 32.5 74 34.3 73.8 35.2L70 36.3C69 36.6 68 36.7 66.9 36.7C64.6 36.7 60.4001 36.6 57.7001 36.7C55.8001 36.7 54.1 37.6 53 39.1L50.8 42.2C50.1 43.2 49.6 44.5 49.6 45.8V53C49.6 53.8 49.9001 54.7 50.4001 55.2L54.5 59.9C55.4 61 56.6 61.7 58 61.9L66.5 63.3L67.1 69C67.2 69.8 67.6 70.7 68.3 71.2L69.2 72L68.7 76.6C68.6 77.5 68.9 78.5 69.5 79.2L70 79.8V86C81.2 78.7 89 66.2 90.1 51.8Z" fill="#2E94CD"/>
<path d="M57.1 12.9L56.6 14.9C56.5 15.2 54.3 17.1 54.3 17.1C53.9 17.1 53.6 17.4 53.6 17.8V22.2C53.6 22.6 53.9 22.9 54.3 22.9H56.9001C57.3001 22.9 57.6 22.6 57.6 22.2V20.2C57.6 20 57.7 19.8 57.8 19.7L59.4001 18.2C59.5001 18.1 59.6 17.9 59.6 17.7V12.1C59.6 11.7 59.3001 11.4 58.9001 11.4H58C57.6 11.4 57.3 11.7 57.3 12L57.1 12.9V12.9ZM45.4001 3.90002C42.2001 3.90002 39.1 4.30002 36.1 4.80002L37.1 7.00002C37.3 7.40002 37.8 7.70003 38.1 7.70003H39.9001C40.3001 7.70003 40.6 7.90003 40.8 8.20003L41.9001 9.70003C42.1001 10 42.5 10.2 42.8 10.2H45C45.2 10.2 45.5001 10.1 45.7001 10L48.1 8.40002C48.5 8.20002 48.7001 7.80002 48.7001 7.40002V6.20003C48.7001 5.70003 49.0001 5.40003 49.4001 5.20003L51.1 4.50002C49.2 4.00002 47.3001 3.90002 45.4001 3.90002V3.90002ZM1.30005 41.3C1.80005 41.3 2.10005 41.5 2.50005 41.9L7.20005 46.7C7.50005 47.1 7.70005 47.4 7.70005 47.9V50.2C7.70005 50.8 8.00005 51.3 8.40005 51.7L14 55.4C14.7 55.9 14.9 56.7 14.7 57.4L13.5 60.5C13.4 60.8 13.3 61.2 13.4 61.5L14.9 68.5C15 69.1 15.4 69.5 15.9 69.7L19.5 71.3C20.2 71.6 20.7 72.4 20.5 73.2L17.9 84C19.9 85.5 21.9 86.9 24 88L27.4 82.3C27.7 81.9 28.1 81.6 28.5 81.5L32.4001 80.5C33.1001 80.3 33.5001 79.8 33.7001 79.2L34.4001 76.1C34.5001 75.8 34.6 75.6 34.8 75.4L41.5 67C41.8 66.7 41.9001 66.3 41.9001 65.9V61.2C41.9001 60.5 41.5001 59.9 40.9001 59.6L34.6 56.8C34.3 56.7 34.1001 56.5 33.9001 56.3L31.4001 53.2C31.0001 52.8 30.6 52.5 30 52.5H23C22.7 52.5 22.5 52.4 22.3 52.3L15.3 49.2C14.6 48.9 14.3 48.3 14.3 47.6V46.6C14.3 46.1 14.1 45.7 13.7 45.4L10.8 42.5C10.4 42.1 10.2 41.8 10.2 41.3V39.5C10.2 38.2 11.6 37.4 12.7 37.9L17.5 40.3C17.8 40.4 18.0001 40.5 18.2001 40.5H19.5C20.4 40.5 21.3 39.8 21.3 38.7V34.5C21.3 33.9 21.5 33.5 22 33.2L35.8 22.6C36.4 22.2 36.6 21.5 36.5 20.8L36 18.6C35.8 17.9 35.3 17.4 34.6 17.3L30.3 16.6C29.7 16.5 29.3 16.1 29.1 15.7L25.8 9.00002C25.7 8.80002 25.6 8.70003 25.5 8.60003C12.9 14.8 3.60005 26.9 1.30005 41.3ZM84.8 45.6C85.8 44.7 87.4 44.7 88.4 45.6L90.1 47.2C89.7 34 83.6 22.3 74.2 14.4C73.5 14.5 72.9 15 72.7 15.7L72.6 16.3C72.4 17 71.8 17.6 71 17.6L65.8 18.4C65.3 18.4 65 18.6 64.6 18.9L58.8 25C58.5 25.3 58.1 25.5 57.6 25.5H54.2001C53.3001 25.5 52.5 26.2 52.5 27.2V29.4C52.5 30.3 53.2001 31.1 54.2001 31.1H56.7001C57.1001 31.1 57.4001 31 57.7001 30.7L60.2001 28.7C60.5001 28.4 60.9001 28.3 61.3001 28.3L65.4 28.4C66.4 28.4 67.3 29.4 67 30.4L66.9 31C66.6 32 67.4 33 68.5 33H69.2C69.8 33 70.2 32.7 70.5 32.3L73.5 28.3C73.9 27.8 74.3 27.6 74.9 27.6L75.7 27.7C76.5 27.8 77.3 28.4 77.3 29.4V31.5C77.3 34.5 75 37.5 72.1 38.2C70.9 38.5 69.7 38.7 68.4 38.7H58.3C57.3 38.7 56.3 39.2 55.6 40.1L53.3 43.1C52.8 43.7 52.6 44.4 52.6 45.1V52.4C52.6 52.6 52.7 52.9 52.8 53L56.9001 57.7C57.5001 58.4 58.1001 58.7 58.9001 58.8L68.6 60.5C69 60.6 69.3 60.9 69.3 61.3L70 68.2C70 68.5 70.1 68.7 70.3 68.9L71.9 70.3C72.1 70.5 72.3 70.8 72.2 71.1L72.7 83.9C78.2 79.7 82.7 74.3 85.7 68.1V65.7C85.7 65.5 85.8 65.3 85.9 65.1L88.1 62.1C88.8 60.2 89.2 58.3 89.5 56.3L83.5 47.6C83.3 47.3 83.2 46.9 83.5 46.6C83.6 46.7 84.2 46.1 84.8 45.6V45.6Z" fill="#660098"/>
<path d="M97.2999 35.9H49.8999C48.4999 35.9 47.3999 34.8 47.3999 33.4V2.59998C47.3999 1.19998 48.4999 0.0999756 49.8999 0.0999756H97.2999C98.6999 0.0999756 99.7999 1.19998 99.7999 2.59998V33.3C99.8999 34.7 98.6999 35.9 97.2999 35.9Z" fill="#FF9800"/>
<path d="M73.6999 21.4C73.4999 21.4 73.2999 21.3 73.0999 21.2L51.4999 5.50002C51.0999 5.20002 50.9999 4.60002 51.2999 4.10002C51.5999 3.70002 52.1999 3.60002 52.6999 3.90002L73.7999 19.2L94.8999 3.90002C95.2999 3.60002 95.9999 3.70002 96.2999 4.10002C96.5999 4.50002 96.4999 5.20002 96.0999 5.50002L74.2999 21.2C74.1999 21.4 73.9999 21.4 73.6999 21.4V21.4Z" fill="#EA3D7D"/>
<path d="M52.0999 31.4C51.7999 31.4 51.4999 31.3 51.2999 31C50.9999 30.6 51.0999 29.9 51.4999 29.6L68.9999 16.9C69.3999 16.6 70.0999 16.7 70.3999 17.1C70.6999 17.5 70.5999 18.2 70.1999 18.5L52.6999 31.2C52.4999 31.3 52.2999 31.4 52.0999 31.4V31.4Z" fill="#EA3D7D"/>
<path d="M95.4001 31.4C95.2001 31.4 95.0001 31.3 94.8001 31.2L77.2001 18.5C76.8001 18.2 76.7001 17.6 77.0001 17.1C77.3001 16.7 77.9001 16.6 78.4001 16.9L96.0001 29.6C96.4001 29.9 96.5001 30.5 96.2001 31C96.0001 31.3 95.7001 31.4 95.4001 31.4Z" fill="#EA3D7D"/>
</svg>
